{"title":"Hard.Rain.1998.iNTERNAL.BDRip.XviD-EXViDiNT","uid":6958080,"size":1484985317,"categoryP":"video","categoryS":"movies","magnet":"?xt=urn:btih:46c7ce00c73ac95908ce0e0f8c095808d21f2582&amp;dn=Hard.Rain.1998.iNTERNAL.BDRip.XviD-EXViDiNT&amp;tr=udp%3A%2F%2Ftracker.openbittorrent.com%3A80&amp;tr=udp%3A%2F%2Fopen.demonii.com%3A1337&amp;tr=udp%3A%2F%2Ftracker.coppersurfer.tk%3A6969&amp;tr=udp%3A%2F%2Fexodus.desync.com%3A6969","seeders":0,"leechers":1,"uploader":"TvTeam","files":8,"time":1326656821,"description":". \n &lt;a href=&quot;\nhttp://www.torrenting.com&quot; rel=&quot;nofollow&quot; target=&quot;_NEW&quot;&gt;\nhttp://www.torrenting.com&lt;/a&gt;          :     Once &amp; For all ;)\n\n\n               www . Torrenting . Com \n\n(((((((((((((= Enjoy No RAR releases =))))))))))))))))))))\n\n\n...................................NFO:....................................\n\n.                                                                                                     \n       \n     \n     \n       \n       \n     \n     \n                                         \n                                         \n                EXVID                    \n                                         \n         \n                                         \n         Filled the Archives             \n                                         \n         \n                                         \n                With:                    \n                                         \n         \n                                         \n                                    \n     E240                           \n                                    \n     SP               (C) 2009      \n                                         \n     \n     \n     \n                                                                                  \n                                                                                   \n                 Hard.Rain.1998.iNTERNAL.BDRip.XviD-EXViDiNT                        \n                                                                                   \n                                                                                  \n     \n                                                                                               \nEXViD aims to iNTERNAL those releases which have been lost in the archives.\nEXViD aims to PRE non-internal releases which have poor sources and are likely skipped by others. &lt;a href=&quot;\nhttp://www.imdb.com/title/tt0120696/&quot; rel=&quot;nofollow&quot; target=&quot;_NEW&quot;&gt;\nhttp://www.imdb.com/title/tt0120696/&lt;/a&gt;\nSubtitles: EN, EL, IT, KO, PL, PT, ES, TH, ZH, NL\nDate: 2012.01\n\nDirector: Mikael Salomon\n\nGenre: Action | Crime | Thriller\n\nPlot:\nYoung Tom helps his uncle Charlie, who is a bank armoured-truck driver. Criminal Jim leads a gang \nof four, they want to steal that truck with money, but the city is taken by a flood. Tom manages \nto hide the moneybags and everyone wants them, including local sheriff, who wants that money for \nhimself.\n\nCast:\nMorgan Freeman \t... \tJim\nChristian Slater... \tTom\nRandy Quaid \t... \tSheriff Mike Collins\nMinnie Driver \t... \tKaren\nEdward Asner \t... \tUncle Charlie\nMichael A. Goorjian \t... \tKenny (as Michael Goorjian)\nDann Florek \t... \tMr. Mehlor\nRicky Harris \t... \tRay\nMark Rolston \t... \tWayne Bryce\nPeter Murnik \t... \tPhil\nWayne Duvall \t... \tHank\nRichard Dysart \t... \tHenry Sears\nBetty White \t... \tDoreen Sears\nRay Baker \t... \tMayor\nLisa Fuhrman \t... \tMayor's Wife \n\nStats:\nFormat                                   : AVI\nFormat/Info                              : Audio Video Interleave\nFormat profile                           : OpenDML\nFile size                                : 1.37 GiB\nDuration                                 : 1h 36mn\nOverall bit rate mode                    : Variable\nOverall bit rate                         : 2 023 Kbps\n\nVideo\nID                                       : 0\nFormat                                   : MPEG-4 Visual\nFormat profile                           : Advanced Simple@L5\nFormat settings, BVOP                    : 2\nFormat settings, QPel                    : No\nFormat settings, GMC                     : No warppoints\nFormat settings, Matrix                  : Default (MPEG)\nCodec ID                                 : XVID\nCodec ID/Hint                            : XviD\nDuration                                 : 1h 36mn\nBit rate                                 : 1 853 Kbps\nWidth                                    : 640 pixels\nHeight                                   : 272 pixels\nDisplay aspect ratio                     : 2.35:1\nFrame rate                               : 23.976 fps\nColor space                              : YUV\nChroma subsampling                       : 4:2:0\nBit depth                                : 8 bits\nScan type                                : Progressive\nCompression mode                         : Lossy\nBits/(Pixel*Frame)                       : 0.444\nStream size                              : 1.25 GiB (92%)\nWriting library                          : XviD 64\n\nAudio\nID                                       : 1\nFormat                                   : MPEG Audio\nFormat version                           : Version 1\nFormat profile                           : Layer 3\nMode                                     : Joint stereo\nMode extension                           : MS Stereo\nCodec ID                                 : 55\nCodec ID/Hint                            : MP3\nDuration                                 : 1h 36mn\nBit rate mode                            : Variable\nBit rate                                 : 156 Kbps\nChannel(s)                               : 2 channels\nSampling rate                            : 48.0 KHz\nCompression mode                         : Lossy\nStream size                              : 76 MiB (8%)\nAlignment                                : Aligned on interleaves\nInterleave, duration                     : 717 ms (17.18 video frames)\nInterleave, preload duration             : 358 ms\n\n\nRelease notes:\nEnjoy!\n\n\nLooking for:\n75TB+ Archives\nDUTCH/FLEMiSH Archives\n                                                                                                    \nGreets: CRBS EPiSODE FiCO FLS iLS KLASSiGER LiPSYNC MADE NODLABS RUNNER SPRiNTER      \n   \n\n                                                                    ASCII DONE BY XX^NFO 2009","torrent":{"xt":"urn:btih:46c7ce00c73ac95908ce0e0f8c095808d21f2582","amp;dn":"Hard.Rain.1998.iNTERNAL.BDRip.XviD-EXViDiNT","amp;tr":["udp%3A%2F%2Ftracker.openbittorrent.com%3A80","udp%3A%2F%2Fopen.demonii.com%3A1337","udp%3A%2F%2Ftracker.coppersurfer.tk%3A6969","udp%3A%2F%2Fexodus.desync.com%3A6969"],"infoHash":"46c7ce00c73ac95908ce0e0f8c095808d21f2582","infoHashBuffer":{"type":"Buffer","data":[70,199,206,0,199,58,201,89,8,206,14,15,140,9,88,8,210,31,37,130]},"announce":[],"urlList":[]}}